# xmcd
#
# Track frame offsets:
#	150
#	24087
#	47350
#	70414
#	90622
#	109012
#	117859
#	128887
#	153004
#	170149
#	186736
#	205984
#	226820
#	245313
#
# Disc length: 3497 seconds
#
# Revision: 1
# Processed by: cddbd v1.5.2PL0 Copyright (c) Steve Scherf et al.
# Submitted via: audiograbber 1.83.01
#
DISCID=b40da70e
DTITLE=Garth Brooks - Man Against Machine
DYEAR=2014
DGENRE=Country
TTITLE0=Man Against Machine
TTITLE1=She's Tired Of Boys
TTITLE2=Cold Like That
TTITLE3=All - American Kid
TTITLE4=Mom
TTITLE5=Wrong About You
TTITLE6=Rodeo And Juliet
TTITLE7=Midnight Train
TTITLE8=Cowboys Forever
TTITLE9=People Loving People
TTITLE10=Send 'Em On Down The Raod
TTITLE11=Fish
TTITLE12=You Wreck Me
TTITLE13=Tacoma
EXTD=
EXTT0=
EXTT1=
EXTT2=
EXTT3=
EXTT4=
EXTT5=
EXTT6=
EXTT7=
EXTT8=
EXTT9=
EXTT10=
EXTT11=
EXTT12=
EXTT13=
PLAYORDER=
